{
  "accessors": [
    {
      "bufferView": 2,
      "componentType": 5126,
      "count": 10457,
      "max": [
        0.20821888744831085,
        0.09888727962970734,
        2.2021801471710205
      ],
      "min": [
        -1.462492823600769,
        -1.867347240447998,
        -1.7078022956848145
      ],
      "type": "VEC3"
    },
    {
      "bufferView": 2,
      "byteOffset": 125484,
      "componentType": 5126,
      "count": 10457,
      "max": [
        0.9998764991760254,
        0.9998764991760254,
        0.9518032073974609
      ],
      "min": [
        -0.9998767375946045,
        -0.9998764991760254,
        -0.7683919072151184
      ],
      "type": "VEC3"
    },
    {
      "bufferView": 1,
      "componentType": 5126,
      "count": 10457,
      "max": [
        0.98828125,
        0.959869384765625
      ],
      "min": [
        0.0128173828125,
        0.037109375
      ],
      "type": "VEC2"
    },
    {
      "bufferView": 1,
      "byteOffset": 83656,
      "componentType": 5126,
      "count": 10457,
      "max": [
        0.923828125,
        0.9921875
      ],
      "min": [
        0.0078125,
        0.0087890625
      ],
      "type": "VEC2"
    },
    {
      "bufferView": 0,
      "componentType": 5125,
      "count": 10458,
      "type": "SCALAR"
    },
    {
      "bufferView": 2,
      "byteOffset": 250968,
      "componentType": 5126,
      "count": 150,
      "max": [
        13.658711433410645,
        8.035683631896973,
        4.017457485198975
      ],
      "min": [
        -12.880463600158691,
        -9.348953247070313,
        1.017553448677063
      ],
      "type": "VEC3"
    },
    {
      "bufferView": 2,
      "byteOffset": 252768,
      "componentType": 5126,
      "count": 150,
      "max": [
        0.9945592284202576,
        0.9993346333503723,
        0.6997809410095215
      ],
      "min": [
        -0.9984754920005798,
        -0.9993503093719482,
        -0.3396587669849396
      ],
      "type": "VEC3"
    },
    {
      "bufferView": 1,
      "byteOffset": 167312,
      "componentType": 5126,
      "count": 150,
      "max": [
        1.68359375,
        1.68359375
      ],
      "min": [
        -0.68359375,
        -1.23828125
      ],
      "type": "VEC2"
    },
    {
      "bufferView": 1,
      "byteOffset": 168512,
      "componentType": 5126,
      "count": 150,
      "max": [
        0.794921875,
        0.8046875
      ],
      "min": [
        0.0,
        0.0
      ],
      "type": "VEC2"
    },
    {
      "bufferView": 1,
      "byteOffset": 169712,
      "componentType": 5126,
      "count": 150,
      "max": [
        1.68359375,
        1.68359375
      ],
      "min": [
        -0.68359375,
        -1.23828125
      ],
      "type": "VEC2"
    },
    {
      "bufferView": 0,
      "byteOffset": 41832,
      "componentType": 5125,
      "count": 348,
      "type": "SCALAR"
    },
    {
      "bufferView": 2,
      "byteOffset": 254568,
      "componentType": 5126,
      "count": 821,
      "max": [
        13.401925086975098,
        8.035682678222656,
        5.887323379516602
      ],
      "min": [
        -12.880463600158691,
        -9.348953247070313,
        1.0123592615127563
      ],
      "type": "VEC3"
    },
    {
      "bufferView": 2,
      "byteOffset": 264420,
      "componentType": 5126,
      "count": 821,
      "max": [
        0.999578058719635,
        1.0,
        0.8655424118041992
      ],
      "min": [
        -0.9987232685089111,
        -1.0,
        -0.661911129951477
      ],
      "type": "VEC3"
    },
    {
      "bufferView": 1,
      "byteOffset": 170912,
      "componentType": 5126,
      "count": 821,
      "max": [
        0.99755859375,
        2.025390625
      ],
      "min": [
        0.00630950927734375,
        0.01171875
      ],
      "type": "VEC2"
    },
    {
      "bufferView": 1,
      "byteOffset": 177480,
      "componentType": 5126,
      "count": 821,
      "max": [
        0.9169921875,
        0.9921875
      ],
      "min": [
        0.0078125,
        0.0234375
      ],
      "type": "VEC2"
    },
    {
      "bufferView": 0,
      "byteOffset": 43224,
      "componentType": 5125,
      "count": 1845,
      "type": "SCALAR"
    },
    {
      "bufferView": 2,
      "byteOffset": 274272,
      "componentType": 5126,
      "count": 60,
      "max": [
        13.658711433410645,
        9.998672485351563,
        1.017557144165039
      ],
      "min": [
        -12.880463600158691,
        -9.348953247070313,
        1.017553448677063
      ],
      "type": "VEC3"
    },
    {
      "bufferView": 2,
      "byteOffset": 274992,
      "componentType": 5126,
      "count": 60,
      "max": [
        0.6310137510299683,
        0.7152346968650818,
        1.0
      ],
      "min": [
        -0.7339888215065002,
        -0.7245135307312012,
        0.44264355301856995
      ],
      "type": "VEC3"
    },
    {
      "bufferView": 1,
      "byteOffset": 184048,
      "componentType": 5126,
      "count": 60,
      "max": [
        3.51171875,
        4.7890625
      ],
      "min": [
        -2.51171875,
        -3.6796875
      ],
      "type": "VEC2"
    },
    {
      "bufferView": 1,
      "byteOffset": 184528,
      "componentType": 5126,
      "count": 60,
      "max": [
        0.31396484375,
        0.9921875
      ],
      "min": [
        0.0078125,
        0.572998046875
      ],
      "type": "VEC2"
    },
    {
      "bufferView": 1,
      "byteOffset": 185008,
      "componentType": 5126,
      "count": 60,
      "max": [
        3.51171875,
        4.7890625
      ],
      "min": [
        -2.51171875,
        -3.6796875
      ],
      "type": "VEC2"
    },
    {
      "bufferView": 0,
      "byteOffset": 50604,
      "componentType": 5125,
      "count": 246,
      "type": "SCALAR"
    },
    {
      "bufferView": 2,
      "byteOffset": 275712,
      "componentType": 5126,
      "count": 433,
      "max": [
        6.144999027252197,
        7.951251029968262,
        4.471015453338623
      ],
      "min": [
        -14.630598068237305,
        -7.84841775894165,
        -0.06073582172393799
      ],
      "type": "VEC3"
    },
    {
      "bufferView": 2,
      "byteOffset": 280908,
      "componentType": 5126,
      "count": 433,
      "max": [
        0.9952362775802612,
        0.9952359795570374,
        0.988246738910675
      ],
      "min": [
        -0.9952360391616821,
        -0.9973465204238892,
        -0.9656534790992737
      ],
      "type": "VEC3"
    },
    {
      "bufferView": 1,
      "byteOffset": 185488,
      "componentType": 5126,
      "count": 433,
      "max": [
        0.97998046875,
        2.189453125
      ],
      "min": [
        0.0002856254577636719,
        0.009765625
      ],
      "type": "VEC2"
    },
    {
      "bufferView": 1,
      "byteOffset": 188952,
      "componentType": 5126,
      "count": 433,
      "max": [
        0.97802734375,
        0.9921913146972656
      ],
      "min": [
        0.2109375,
        0.0146484375
      ],
      "type": "VEC2"
    },
    {
      "bufferView": 0,
      "byteOffset": 51588,
      "componentType": 5125,
      "count": 837,
      "type": "SCALAR"
    },
    {
      "bufferView": 2,
      "byteOffset": 286104,
      "componentType": 5126,
      "count": 1080,
      "max": [
        13.84848690032959,
        10.095355033874512,
        4.0200018882751465
      ],
      "min": [
        -12.975625038146973,
        -9.441984176635742,
        -0.10778029263019562
      ],
      "type": "VEC3"
    },
    {
      "bufferView": 2,
      "byteOffset": 299064,
      "componentType": 5126,
      "count": 1080,
      "max": [
        0.9541236162185669,
        0.9708293676376343,
        0.9858191013336182
      ],
      "min": [
        -0.9729522466659546,
        -0.9826393127441406,
        -0.9825162887573242
      ],
      "type": "VEC3"
    },
    {
      "bufferView": 1,
      "byteOffset": 192416,
      "componentType": 5126,
      "count": 1080,
      "max": [
        2.00390625,
        0.9974536895751953
      ],
      "min": [
        -1.046875,
        0.0
      ],
      "type": "VEC2"
    },
    {
      "bufferView": 1,
      "byteOffset": 201056,
      "componentType": 5126,
      "count": 1080,
      "max": [
        0.9638671875,
        0.9921875596046448
      ],
      "min": [
        0.0078125,
        0.00830078125
      ],
      "type": "VEC2"
    },
    {
      "bufferView": 1,
      "byteOffset": 209696,
      "componentType": 5126,
      "count": 1080,
      "max": [
        2.00390625,
        0.9974536895751953
      ],
      "min": [
        -1.046875,
        0.0
      ],
      "type": "VEC2"
    },
    {
      "bufferView": 0,
      "byteOffset": 54936,
      "componentType": 5125,
      "count": 5310,
      "type": "SCALAR"
    }
  ],
  "asset": {
    "extras": {
      "author": "GeorgeZemtsov (https://sketchfab.com/weses)",
      "license": "CC-BY-4.0 (http://creativecommons.org/licenses/by/4.0/)",
      "source": "https://sketchfab.com/3d-models/hello-neighbor-prototype-house-floor-1-8cd7a70da53e45d9baf60e7517a9a2a7",
      "title": "Hello Neighbor Prototype House Floor 1"
    },
    "generator": "Sketchfab-16.68.0",
    "version": "2.0"
  },
  "bufferViews": [
    {
      "buffer": 0,
      "byteLength": 76176,
      "name": "floatBufferViews",
      "target": 34963
    },
    {
      "buffer": 0,
      "byteLength": 218336,
      "byteOffset": 76176,
      "byteStride": 8,
      "name": "floatBufferViews",
      "target": 34962
    },
    {
      "buffer": 0,
      "byteLength": 312024,
      "byteOffset": 294512,
      "byteStride": 12,
      "name": "floatBufferViews",
      "target": 34962
    }
  ],
  "buffers": [
    {
      "byteLength": 606536,
      "uri": "house.bin"
    }
  ],
  "images": [
    {
      "uri": "textures/Railings_baseColor.png"
    },
    {
      "uri": "textures/dummy_material_0_baseColor.png"
    },
    {
      "uri": "textures/dummy_material_1_baseColor.png"
    },
    {
      "uri": "textures/dummy_material_2_baseColor.png"
    },
    {
      "uri": "textures/dummy_material_3_baseColor.png"
    },
    {
      "uri": "textures/dummy_material_4_baseColor.png"
    }
  ],
  "materials": [
    {
      "doubleSided": true,
      "name": "Railings",
      "pbrMetallicRoughness": {
        "baseColorTexture": {
          "index": 0
        },
        "metallicFactor": 0.0,
        "roughnessFactor": 0.9329179606750063
      }
    },
    {
      "doubleSided": true,
      "name": "dummy_material_0",
      "pbrMetallicRoughness": {
        "baseColorTexture": {
          "index": 1
        },
        "metallicFactor": 0.0,
        "roughnessFactor": 0.9329179606750063
      }
    },
    {
      "doubleSided": true,
      "name": "dummy_material_1",
      "pbrMetallicRoughness": {
        "baseColorTexture": {
          "index": 2
        },
        "metallicFactor": 0.0,
        "roughnessFactor": 0.904394677554019
      }
    },
    {
      "doubleSided": true,
      "name": "dummy_material_2",
      "pbrMetallicRoughness": {
        "baseColorTexture": {
          "index": 3
        },
        "metallicFactor": 0.0,
        "roughnessFactor": 0.8369638116245353
      }
    },
    {
      "doubleSided": true,
      "name": "dummy_material_3",
      "pbrMetallicRoughness": {
        "baseColorTexture": {
          "index": 4
        },
        "metallicFactor": 0.0,
        "roughnessFactor": 0.9232313141964772
      }
    },
    {
      "doubleSided": true,
      "name": "dummy_material_4",
      "pbrMetallicRoughness": {
        "baseColorTexture": {
          "index": 5
        },
        "metallicFactor": 0.0,
        "roughnessFactor": 0.798753882025019
      }
    }
  ],
  "meshes": [
    {
      "name": "Rails_Railings_0",
      "primitives": [
        {
          "attributes": {
            "NORMAL": 1,
            "POSITION": 0,
            "TEXCOORD_0": 2,
            "TEXCOORD_1": 3
          },
          "indices": 4,
          "material": 0,
          "mode": 4
        }
      ]
    },
    {
      "name": "HouseMesh_map_floor_1_mo_dummy_material_0_0",
      "primitives": [
        {
          "attributes": {
            "NORMAL": 6,
            "POSITION": 5,
            "TEXCOORD_0": 7,
            "TEXCOORD_1": 8,
            "TEXCOORD_2": 9
          },
          "indices": 10,
          "material": 1,
          "mode": 4
        }
      ]
    },
    {
      "name": "HouseMesh_map_floor_1_mo_dummy_material_1_0",
      "primitives": [
        {
          "attributes": {
            "NORMAL": 12,
            "POSITION": 11,
            "TEXCOORD_0": 13,
            "TEXCOORD_1": 14
          },
          "indices": 15,
          "material": 2,
          "mode": 4
        }
      ]
    },
    {
      "name": "HouseMesh_map_floor_1_mo_dummy_material_2_0",
      "primitives": [
        {
          "attributes": {
            "NORMAL": 17,
            "POSITION": 16,
            "TEXCOORD_0": 18,
            "TEXCOORD_1": 19,
            "TEXCOORD_2": 20
          },
          "indices": 21,
          "material": 3,
          "mode": 4
        }
      ]
    },
    {
      "name": "HouseMesh_map_floor_1_mo_dummy_material_3_0",
      "primitives": [
        {
          "attributes": {
            "NORMAL": 23,
            "POSITION": 22,
            "TEXCOORD_0": 24,
            "TEXCOORD_1": 25
          },
          "indices": 26,
          "material": 4,
          "mode": 4
        }
      ]
    },
    {
      "name": "HouseMesh_map_floor_1_mo_dummy_material_4_0",
      "primitives": [
        {
          "attributes": {
            "NORMAL": 28,
            "POSITION": 27,
            "TEXCOORD_0": 29,
            "TEXCOORD_1": 30,
            "TEXCOORD_2": 31
          },
          "indices": 32,
          "material": 5,
          "mode": 4
        }
      ]
    }
  ],
  "nodes": [
    {
      "children": [
        1
      ],
      "matrix": [
        1.0,
        0.0,
        0.0,
        0.0,
        0.0,
        2.220446049250313e-16,
        -1.0,
        0.0,
        0.0,
        1.0,
        2.220446049250313e-16,
        0.0,
        0.0,
        0.0,
        0.0,
        1.0
      ],
      "name": "Sketchfab_model"
    },
    {
      "children": [
        2
      ],
      "matrix": [
        0.009999999776482582,
        0.0,
        0.0,
        0.0,
        0.0,
        0.0,
        0.009999999776482582,
        0.0,
        0.0,
        -0.009999999776482582,
        0.0,
        0.0,
        0.0,
        0.0,
        0.0,
        1.0
      ],
      "name": "prototype_floor_1.fbx"
    },
    {
      "children": [
        3,
        5
      ],
      "name": "RootNode"
    },
    {
      "children": [
        4
      ],
      "matrix": [
        100.0,
        0.0,
        0.0,
        0.0,
        0.0,
        -1.629206793918314e-05,
        -99.99999999999868,
        0.0,
        0.0,
        99.99999999999868,
        -1.629206793918314e-05,
        0.0,
        392.37884521484375,
        290.3956298828125,
        -644.1963500976563,
        1.0
      ],
      "name": "Rails"
    },
    {
      "mesh": 0,
      "name": "Rails_Railings_0"
    },
    {
      "children": [
        6,
        7,
        8,
        9,
        10
      ],
      "matrix": [
        100.0,
        0.0,
        0.0,
        0.0,
        0.0,
        -1.629206793918314e-05,
        -99.99999999999868,
        0.0,
        0.0,
        99.99999999999868,
        -1.629206793918314e-05,
        0.0,
        0.0,
        0.0,
        0.0,
        1.0
      ],
      "name": "HouseMesh_map_floor_1_mo"
    },
    {
      "mesh": 1,
      "name": "HouseMesh_map_floor_1_mo_dummy_material_0_0"
    },
    {
      "mesh": 2,
      "name": "HouseMesh_map_floor_1_mo_dummy_material_1_0"
    },
    {
      "mesh": 3,
      "name": "HouseMesh_map_floor_1_mo_dummy_material_2_0"
    },
    {
      "mesh": 4,
      "name": "HouseMesh_map_floor_1_mo_dummy_material_3_0"
    },
    {
      "mesh": 5,
      "name": "HouseMesh_map_floor_1_mo_dummy_material_4_0"
    }
  ],
  "samplers": [
    {
      "magFilter": 9729,
      "minFilter": 9987,
      "wrapS": 10497,
      "wrapT": 10497
    }
  ],
  "scene": 0,
  "scenes": [
    {
      "name": "Sketchfab_Scene",
      "nodes": [
        0
      ]
    }
  ],
  "textures": [
    {
      "sampler": 0,
      "source": 0
    },
    {
      "sampler": 0,
      "source": 1
    },
    {
      "sampler": 0,
      "source": 2
    },
    {
      "sampler": 0,
      "source": 3
    },
    {
      "sampler": 0,
      "source": 4
    },
    {
      "sampler": 0,
      "source": 5
    }
  ]
}
